<svg width="40" height="41" viewBox="0 0 40 41" fill="none" xmlns="http://www.w3.org/2000/svg">
<path d="M6.68446e-05 20.5458C-0.0126124 25.4588 1.77887 30.203 5.0297 33.8651C8.28053 37.5273 12.761 39.8485 17.6086 40.3822C22.4563 40.9159 27.3285 39.6242 31.2876 36.7557C35.2467 33.8873 38.0128 29.6449 39.0535 24.845H33.8191C33.6392 24.8817 33.4735 24.9692 33.3411 25.0972C32.9598 25.4871 32.6168 25.9133 32.317 26.3698C32.2333 26.5172 32.1096 26.6375 31.9605 26.7167C31.8114 26.7959 31.643 26.8306 31.475 26.8169C31.0653 26.8169 30.6443 26.8169 30.2005 26.8742V28.5939C30.5191 28.6971 30.8605 28.7888 31.1905 28.9149C31.3613 28.9773 31.5038 29.1 31.5917 29.2602C31.6796 29.4204 31.7068 29.6073 31.6684 29.7862C31.6684 30.2104 31.6684 30.646 31.2132 30.8524C30.1184 31.2986 28.8943 31.2986 27.7995 30.8524C27.6372 30.7929 27.5012 30.6772 27.4157 30.526C27.3303 30.3748 27.3009 30.1979 27.3329 30.027C27.3329 29.5913 27.2419 29.1098 27.7881 28.8805C28.1295 28.7544 28.4708 28.6512 28.8236 28.5366V26.9315L23.2023 27.1952V28.6054L23.3502 28.6741C24.5792 29.041 24.3857 29.2703 24.3402 30.3824C24.3402 30.5772 24.0216 30.8409 23.794 30.9441C22.9896 31.2635 22.0949 31.2635 21.2906 30.9441C20.6078 30.7148 20.7102 30.1531 20.6875 29.6257C20.6759 29.4275 20.7366 29.2319 20.8581 29.0757C20.9797 28.9194 21.1537 28.8133 21.3475 28.7773C21.5113 28.7114 21.6784 28.654 21.8481 28.6054V27.2296L16.3747 27.4818V28.6283L16.7389 28.7315C18.002 29.0639 17.8085 29.3505 17.763 30.348C17.763 30.5429 17.5127 30.7951 17.3192 30.8868C16.8009 31.1081 16.2436 31.2222 15.6806 31.2222C15.1176 31.2222 14.5604 31.1081 14.042 30.8868C13.4844 30.669 13.5982 30.176 13.5755 29.7403C13.5512 29.5685 13.5882 29.3936 13.6799 29.2467C13.7716 29.0998 13.912 28.9903 14.0761 28.9378C14.3834 28.8117 14.6906 28.7315 15.0206 28.6283V27.5965L8.39792 27.9175V13.2544L15.0206 13.5754V12.5436C14.6906 12.4404 14.3834 12.3601 14.0761 12.234C13.912 12.1815 13.7716 12.0721 13.6799 11.9251C13.5882 11.7782 13.5512 11.6033 13.5755 11.4315C13.5755 10.9844 13.4844 10.4914 14.042 10.285C14.5597 10.0611 15.1172 9.94563 15.6806 9.94563C16.244 9.94563 16.8015 10.0611 17.3192 10.285C17.5127 10.3768 17.763 10.629 17.763 10.8124C17.763 11.8213 18.002 12.1079 16.7389 12.4404L16.3747 12.5436V13.69L21.8481 13.9422V12.5665L21.3475 12.3945C21.1537 12.3585 20.9797 12.2524 20.8581 12.0962C20.7366 11.9399 20.6759 11.7443 20.6875 11.5461C20.6875 11.0073 20.6078 10.457 21.2906 10.2277C22.0949 9.90834 22.9896 9.90834 23.794 10.2277C24.0216 10.3309 24.3288 10.5946 24.3402 10.7895C24.3402 11.9359 24.5792 12.1194 23.3502 12.4977L23.2023 12.5665V13.9766L28.8236 14.2403V12.5206C28.4708 12.406 28.1295 12.3028 27.7881 12.1767C27.2419 11.9818 27.3557 11.5003 27.3329 11.0302C27.3009 10.8593 27.3303 10.6824 27.4157 10.5312C27.5012 10.38 27.6372 10.2643 27.7995 10.2048C28.8943 9.7586 30.1184 9.7586 31.2132 10.2048C31.7253 10.4112 31.657 10.8468 31.6684 11.271C31.7068 11.4499 31.6796 11.6368 31.5917 11.797C31.5038 11.9572 31.3613 12.0799 31.1905 12.1423L30.2005 12.4633V14.183C30.6443 14.183 31.0653 14.2518 31.475 14.183C31.643 14.1693 31.8114 14.204 31.9605 14.2832C32.1096 14.3624 32.2333 14.4827 32.317 14.6301C32.6168 15.0866 32.9598 15.5128 33.3411 15.9027C33.4764 16.0265 33.641 16.1133 33.8191 16.1549H39.0535C38.013 11.356 35.2478 7.11431 31.2899 4.24591C27.332 1.37751 22.4611 0.0850419 17.6143 0.617179C12.7675 1.14932 8.2872 3.46847 5.03546 7.12842C1.78372 10.7884 -0.00977128 15.5306 6.68446e-05 20.4426V20.5458Z" fill="white"/>
</svg>
